<svg width="14" height="17" viewBox="0 0 14 17" fill="none" xmlns="http://www.w3.org/2000/svg">
<path d="M0.238708 3.31573C16.7771 20.7416 15.9611 18.7649 2.61521 1.39441L13.0036 13.472C13.5539 14.1118 13.468 15.0605 12.8118 15.5911V15.5911C12.1555 16.1217 11.1774 16.0331 10.6271 15.3933L0.238708 3.31573Z" fill="white"/>
<path d="M10.3146 4.09438C10.3146 2.3854 11.7 1 13.409 1V1V14.4528C13.409 15.3073 12.7163 16 11.8618 16V16C11.0073 16 10.3146 15.3073 10.3146 14.4528V4.09438Z" fill="white"/>
<path d="M3.09439 2.54719C3.09439 1.6927 2.40169 1 1.5472 1V1C0.692715 1 1.45435e-05 1.6927 1.45435e-05 2.54719V16V16C1.70899 16 3.09439 14.6146 3.09439 12.9056V2.54719Z" fill="white"/>
<path d="M0.300537 2.3876C16.7487 19.7193 15.9368 17.7535 2.66288 0.477721L12.9954 12.4904C13.5424 13.1263 13.4571 14.0694 12.8047 14.5968V14.5968C12.1524 15.1242 11.1801 15.0362 10.6331 14.4003L0.300537 2.3876Z" fill="white"/>
<path d="M10.3146 3.09438C10.3146 1.3854 11.7 0 13.409 0V0V13.4528C13.409 14.3073 12.7163 15 11.8618 15V15C11.0073 15 10.3146 14.3073 10.3146 13.4528V3.09438Z" fill="white"/>
<path d="M3.09439 1.54719C3.09439 0.692699 2.40169 0 1.5472 0V0C0.692715 0 1.45435e-05 0.6927 1.45435e-05 1.54719V15V15C1.70899 15 3.09439 13.6146 3.09439 11.9056V1.54719Z" fill="white"/>
</svg>
